<svg xmlns="http://www.w3.org/2000/svg" viewBox="0 0 64 64">
  <rect width="64" height="64" rx="14" fill="#111113"/>
  <g transform="translate(6.4,6.4) scale(0.8)">
    <path d="M32 33 L25.06 23.45 L32 3 Z" fill="#83838C"/>
    <path d="M32 33 L38.94 23.45 L60.53 23.73 Z" fill="#83838C"/>
    <path d="M32 33 L43.22 36.65 L49.63 57.27 Z" fill="#83838C"/>
    <path d="M32 33 L32 44.8 L14.37 57.27 Z" fill="#83838C"/>
    <path d="M32 33 L20.78 36.65 L3.47 23.73 Z" fill="#83838C"/>
    <path d="M32 33 L32 3 L38.94 23.45 Z" fill="#EDEDF1"/>
    <path d="M32 33 L60.53 23.73 L43.22 36.65 Z" fill="#EDEDF1"/>
    <path d="M32 33 L49.63 57.27 L32 44.8 Z" fill="#EDEDF1"/>
    <path d="M32 33 L14.37 57.27 L20.78 36.65 Z" fill="#EDEDF1"/>
    <path d="M32 33 L3.47 23.73 L25.06 23.45 Z" fill="#EDEDF1"/>
  </g>
</svg>
